<svg id="svg" version="1.1" xmlns="http://www.w3.org/2000/svg" xmlns:xlink="http://www.w3.org/1999/xlink" width="400" height="400" viewBox="0, 0, 400,400"><g id="svgg"><path id="path0" d="M146.875 82.227 C 146.875 82.549,146.741 82.813,146.577 82.813 C 146.222 82.813,144.922 85.704,144.922 86.494 C 144.922 86.796,144.784 87.103,144.615 87.174 C 144.168 87.364,142.188 91.565,142.188 92.324 C 142.188 92.679,142.012 92.969,141.797 92.969 C 141.582 92.969,141.406 93.306,141.406 93.717 C 141.406 94.129,141.267 94.525,141.098 94.596 C 140.746 94.745,138.672 99.041,138.672 99.620 C 138.672 99.829,138.496 100.000,138.281 100.000 C 138.066 100.000,137.891 100.352,137.891 100.781 C 137.891 101.211,137.756 101.563,137.592 101.563 C 137.278 101.563,135.938 104.414,135.938 105.081 C 135.938 105.294,135.762 105.469,135.547 105.469 C 135.332 105.469,135.156 105.820,135.156 106.250 C 135.156 106.680,135.022 107.031,134.858 107.031 C 134.544 107.031,133.203 109.883,133.203 110.550 C 133.203 110.763,133.027 110.938,132.813 110.938 C 132.598 110.938,132.422 111.289,132.422 111.719 C 132.422 112.148,132.288 112.500,132.123 112.500 C 131.810 112.500,130.469 115.351,130.469 116.018 C 130.469 116.232,130.293 116.406,130.078 116.406 C 129.863 116.406,129.688 116.758,129.688 117.188 C 129.688 117.617,129.512 117.969,129.297 117.969 C 129.082 117.969,128.906 118.232,128.906 118.555 C 128.906 118.877,128.750 119.141,128.559 119.141 C 128.368 119.141,128.097 119.756,127.955 120.508 C 127.814 121.260,127.531 121.875,127.326 121.875 C 127.121 121.875,126.953 122.212,126.953 122.624 C 126.953 123.035,126.815 123.431,126.646 123.503 C 126.265 123.664,124.219 127.841,124.219 128.457 C 124.219 128.704,124.063 128.906,123.874 128.906 C 123.684 128.906,123.431 129.214,123.312 129.590 C 123.193 129.966,122.832 130.713,122.511 131.250 C 122.189 131.787,121.679 132.754,121.378 133.398 C 121.076 134.043,120.361 135.395,119.790 136.403 C 119.218 137.411,118.750 138.510,118.750 138.845 C 118.750 139.179,118.574 139.453,118.359 139.453 C 118.145 139.453,117.969 139.717,117.969 140.039 C 117.969 140.361,117.793 140.625,117.578 140.625 C 117.363 140.625,117.188 140.977,117.188 141.406 C 117.188 141.836,117.020 142.188,116.815 142.188 C 116.609 142.188,116.326 142.803,116.185 143.555 C 116.044 144.307,115.772 144.922,115.582 144.922 C 115.391 144.922,115.234 145.186,115.234 145.508 C 115.234 145.830,115.059 146.094,114.844 146.094 C 114.629 146.094,114.453 146.431,114.453 146.842 C 114.453 147.254,114.321 147.650,114.160 147.721 C 113.999 147.793,113.476 148.643,112.997 149.609 C 112.518 150.576,111.603 152.246,110.963 153.320 C 110.322 154.395,109.791 155.581,109.782 155.957 C 109.773 156.333,109.590 156.641,109.375 156.641 C 109.160 156.641,108.984 156.904,108.984 157.227 C 108.984 157.549,108.809 157.813,108.594 157.813 C 108.379 157.813,108.203 158.164,108.203 158.594 C 108.203 159.023,108.035 159.375,107.830 159.375 C 107.625 159.375,107.342 159.990,107.201 160.742 C 107.060 161.494,106.788 162.109,106.597 162.109 C 106.406 162.109,106.250 162.373,106.250 162.695 C 106.250 163.018,106.074 163.281,105.859 163.281 C 105.645 163.281,105.469 163.633,105.469 164.063 C 105.469 164.492,105.307 164.844,105.109 164.844 C 104.911 164.844,104.639 165.347,104.504 165.963 C 104.369 166.578,103.953 167.413,103.581 167.818 C 102.834 168.631,101.563 171.162,101.563 171.836 C 101.563 172.072,101.387 172.266,101.172 172.266 C 100.957 172.266,100.781 172.617,100.781 173.047 C 100.781 173.477,100.605 173.828,100.391 173.828 C 100.176 173.828,100.000 174.092,100.000 174.414 C 100.000 174.736,99.824 175.000,99.609 175.000 C 99.395 175.000,99.213 175.308,99.206 175.684 C 99.199 176.060,98.936 176.708,98.620 177.125 C 98.305 177.542,98.047 178.202,98.047 178.590 C 98.047 178.979,97.871 179.297,97.656 179.297 C 97.441 179.297,97.266 179.561,97.266 179.883 C 97.266 180.205,97.090 180.469,96.875 180.469 C 96.660 180.469,96.484 180.820,96.484 181.250 C 96.484 181.680,96.328 182.031,96.136 182.031 C 95.945 182.031,95.669 182.504,95.524 183.082 C 95.379 183.659,94.919 184.612,94.501 185.198 C 92.967 187.353,92.416 187.309,120.154 187.262 C 134.108 187.238,145.873 187.106,146.298 186.968 C 147.000 186.740,150.805 179.763,150.800 178.711 C 150.799 178.496,151.142 177.881,151.563 177.344 C 151.983 176.807,152.330 176.060,152.335 175.684 C 152.340 175.308,152.512 175.000,152.717 175.000 C 152.922 175.000,153.205 174.385,153.346 173.633 C 153.487 172.881,153.759 172.266,153.950 172.266 C 154.141 172.266,154.297 172.002,154.297 171.680 C 154.297 171.357,154.473 171.094,154.688 171.094 C 154.902 171.094,155.078 170.742,155.078 170.313 C 155.078 169.883,155.254 169.531,155.469 169.531 C 155.684 169.531,155.859 169.180,155.859 168.750 C 155.859 168.320,156.027 167.969,156.232 167.969 C 156.437 167.969,156.721 167.354,156.862 166.602 C 157.003 165.850,157.274 165.234,157.465 165.234 C 157.656 165.234,157.813 164.971,157.813 164.648 C 157.813 164.326,157.988 164.063,158.203 164.063 C 158.418 164.063,158.594 163.711,158.594 163.281 C 158.594 162.852,158.762 162.500,158.967 162.500 C 159.172 162.500,159.455 161.885,159.596 161.133 C 159.737 160.381,160.009 159.766,160.200 159.766 C 160.391 159.766,160.547 159.502,160.547 159.180 C 160.547 158.857,160.723 158.594,160.938 158.594 C 161.152 158.594,161.328 158.242,161.328 157.813 C 161.328 157.383,161.496 157.031,161.701 157.031 C 161.906 157.031,162.189 156.416,162.330 155.664 C 162.472 154.912,162.743 154.297,162.934 154.297 C 163.125 154.297,163.281 154.033,163.281 153.711 C 163.281 153.389,163.457 153.125,163.672 153.125 C 163.887 153.125,164.063 152.773,164.063 152.344 C 164.063 151.914,164.230 151.563,164.435 151.563 C 164.641 151.563,164.924 150.947,165.065 150.195 C 165.206 149.443,165.478 148.828,165.668 148.828 C 165.859 148.828,166.016 148.477,166.016 148.047 C 166.016 147.617,166.191 147.266,166.406 147.266 C 166.621 147.266,166.797 147.032,166.797 146.746 C 166.797 146.460,167.236 145.361,167.772 144.304 C 168.308 143.248,168.747 142.163,168.748 141.895 C 168.749 141.626,168.926 141.406,169.141 141.406 C 169.355 141.406,169.531 141.055,169.531 140.625 C 169.531 140.195,169.666 139.844,169.830 139.844 C 169.994 139.844,170.445 139.097,170.832 138.184 C 171.219 137.271,171.743 136.040,171.996 135.449 C 172.249 134.858,172.589 134.375,172.752 134.375 C 172.914 134.375,173.047 134.109,173.047 133.784 C 173.047 133.459,173.211 132.887,173.412 132.514 C 174.261 130.940,175.000 129.141,175.000 128.651 C 175.000 128.362,175.133 128.125,175.295 128.125 C 175.458 128.125,175.833 127.554,176.129 126.855 C 177.256 124.197,177.897 122.845,178.120 122.656 C 178.533 122.306,181.250 116.687,181.250 116.182 C 181.250 115.911,181.382 115.632,181.543 115.560 C 181.920 115.392,183.208 111.736,183.205 110.840 C 183.204 110.464,183.372 110.156,183.578 110.156 C 183.784 110.156,184.167 109.409,184.428 108.496 C 184.689 107.583,185.015 106.660,185.153 106.445 C 185.291 106.230,185.724 105.000,186.116 103.711 C 186.508 102.422,186.955 101.016,187.110 100.586 C 187.719 98.898,188.246 97.004,188.497 95.601 C 188.642 94.793,188.916 94.036,189.107 93.918 C 189.297 93.800,189.453 93.216,189.453 92.620 C 189.453 92.024,189.574 91.416,189.721 91.269 C 190.151 90.838,190.973 88.225,191.245 86.421 C 191.383 85.505,191.652 84.660,191.842 84.542 C 192.032 84.425,192.188 83.724,192.188 82.985 L 192.188 81.641 169.531 81.641 C 149.653 81.641,146.875 81.712,146.875 82.227 M84.371 204.395 C 83.945 205.093,83.596 205.884,83.595 206.152 C 83.594 206.421,83.418 206.641,83.203 206.641 C 82.988 206.641,82.813 206.992,82.813 207.422 C 82.813 207.852,82.678 208.203,82.514 208.203 C 82.200 208.203,80.859 211.054,80.859 211.721 C 80.859 211.935,80.684 212.109,80.469 212.109 C 80.254 212.109,80.078 212.461,80.078 212.891 C 80.078 213.320,79.944 213.672,79.780 213.672 C 79.466 213.672,78.125 216.523,78.125 217.190 C 78.125 217.404,77.949 217.578,77.734 217.578 C 77.520 217.578,77.344 217.757,77.344 217.977 C 77.344 218.196,76.904 219.071,76.367 219.922 C 75.830 220.773,75.391 221.736,75.391 222.063 C 75.391 222.389,75.215 222.656,75.000 222.656 C 74.785 222.656,74.609 222.920,74.609 223.242 C 74.609 223.564,74.434 223.828,74.219 223.828 C 74.004 223.828,73.828 224.180,73.828 224.609 C 73.828 225.039,73.691 225.391,73.523 225.391 C 73.356 225.391,72.878 226.270,72.461 227.344 C 72.044 228.418,71.566 229.297,71.398 229.297 C 71.231 229.297,71.094 229.648,71.094 230.078 C 71.094 230.508,70.959 230.859,70.795 230.859 C 70.538 230.859,69.141 233.658,69.141 234.175 C 69.141 234.277,68.525 235.322,67.773 236.497 C 67.021 237.673,66.406 238.906,66.406 239.239 C 66.406 239.572,66.263 239.844,66.089 239.844 C 65.914 239.844,65.529 240.459,65.234 241.211 C 64.939 241.963,64.563 242.578,64.398 242.578 C 64.233 242.578,63.982 243.193,63.841 243.945 C 63.700 244.697,63.429 245.313,63.238 245.313 C 63.047 245.313,62.891 245.664,62.891 246.094 C 62.891 246.523,62.715 246.875,62.500 246.875 C 62.285 246.875,62.109 247.139,62.109 247.461 C 62.109 247.783,61.953 248.047,61.762 248.047 C 61.571 248.047,61.302 248.649,61.164 249.386 C 61.026 250.122,60.786 250.781,60.632 250.850 C 60.283 251.007,59.222 252.771,58.090 255.078 C 57.615 256.045,57.095 256.895,56.934 256.966 C 56.772 257.038,56.641 257.433,56.641 257.845 C 56.641 258.257,56.506 258.594,56.342 258.594 C 56.028 258.594,54.687 261.445,54.688 262.112 C 54.688 262.325,54.512 262.500,54.297 262.500 C 54.082 262.500,53.906 262.852,53.906 263.281 C 53.906 263.711,53.730 264.063,53.516 264.063 C 53.301 264.063,53.125 264.326,53.125 264.648 C 53.125 264.971,52.969 265.234,52.778 265.234 C 52.587 265.234,52.315 265.850,52.174 266.602 C 52.033 267.354,51.750 267.969,51.545 267.969 C 51.340 267.969,51.172 268.154,51.172 268.380 C 51.172 268.606,50.732 269.438,50.195 270.229 C 49.658 271.019,49.219 271.976,49.219 272.356 C 49.219 272.736,49.043 273.047,48.828 273.047 C 48.613 273.047,48.438 273.311,48.438 273.633 C 48.438 273.955,48.262 274.219,48.047 274.219 C 47.832 274.219,47.656 274.570,47.656 275.000 C 47.656 275.430,47.519 275.781,47.352 275.781 C 47.184 275.781,46.706 276.660,46.289 277.734 C 45.872 278.809,45.394 279.688,45.227 279.688 C 45.059 279.688,44.922 279.873,44.922 280.099 C 44.922 280.325,44.482 281.157,43.945 281.947 C 43.408 282.738,42.969 283.695,42.969 284.075 C 42.969 284.455,42.793 284.766,42.578 284.766 C 42.363 284.766,42.188 285.029,42.188 285.352 C 42.188 285.674,42.012 285.938,41.797 285.938 C 41.582 285.938,41.406 286.289,41.406 286.719 C 41.406 287.148,41.238 287.500,41.033 287.500 C 40.828 287.500,40.545 288.115,40.404 288.867 C 40.263 289.619,39.991 290.234,39.800 290.234 C 39.609 290.234,39.453 290.498,39.453 290.820 C 39.453 291.143,39.317 291.406,39.150 291.406 C 38.983 291.406,38.500 292.196,38.076 293.160 C 37.652 294.125,37.206 294.916,37.085 294.918 C 36.964 294.920,36.623 295.537,36.328 296.289 C 36.033 297.041,35.663 297.656,35.505 297.656 C 35.347 297.656,35.093 298.227,34.940 298.925 C 34.786 299.623,34.374 300.458,34.024 300.781 C 33.302 301.446,31.250 305.423,31.250 306.158 C 31.250 306.423,31.074 306.641,30.859 306.641 C 30.645 306.641,30.469 306.904,30.469 307.227 C 30.469 307.549,30.332 307.813,30.166 307.813 C 29.999 307.813,29.516 308.602,29.091 309.567 C 28.667 310.531,28.188 311.322,28.027 311.324 C 27.866 311.326,27.734 311.665,27.734 312.077 C 27.734 312.489,27.594 312.884,27.423 312.956 C 27.252 313.027,26.730 313.877,26.263 314.844 C 25.260 316.920,24.129 318.865,23.761 319.145 C 23.617 319.254,23.369 319.863,23.210 320.499 C 23.050 321.134,22.623 321.972,22.260 322.361 C 21.495 323.183,19.531 326.952,19.531 327.601 C 19.531 327.843,19.268 328.143,18.945 328.266 C 18.623 328.390,18.359 328.936,18.359 329.480 L 18.359 330.469 49.583 330.469 L 80.807 330.469 81.063 329.590 C 81.528 327.997,82.217 326.563,82.517 326.563 C 82.680 326.563,82.813 326.211,82.813 325.781 C 82.813 325.352,82.980 325.000,83.185 325.000 C 83.391 325.000,83.674 324.383,83.816 323.628 C 83.957 322.874,84.229 322.161,84.419 322.043 C 84.610 321.925,84.766 321.488,84.766 321.071 C 84.766 320.654,84.900 320.313,85.064 320.313 C 85.427 320.313,86.719 317.413,86.719 316.599 C 86.719 316.278,86.851 316.014,87.012 316.013 C 87.363 316.009,88.281 314.117,88.281 313.399 C 88.281 313.119,88.457 312.891,88.672 312.891 C 88.887 312.891,89.068 312.583,89.075 312.207 C 89.082 311.831,89.345 311.182,89.661 310.765 C 89.976 310.348,90.234 309.689,90.234 309.300 C 90.234 308.912,90.410 308.594,90.625 308.594 C 90.840 308.594,91.016 308.253,91.016 307.836 C 91.016 307.419,91.191 306.969,91.406 306.836 C 91.621 306.703,91.797 306.253,91.797 305.836 C 91.797 305.419,91.965 305.078,92.170 305.078 C 92.375 305.078,92.658 304.463,92.799 303.711 C 92.940 302.959,93.212 302.344,93.403 302.344 C 93.594 302.344,93.750 302.080,93.750 301.758 C 93.750 301.436,93.926 301.172,94.141 301.172 C 94.355 301.172,94.531 300.820,94.531 300.391 C 94.531 299.961,94.699 299.609,94.904 299.609 C 95.109 299.609,95.393 298.992,95.534 298.238 C 95.676 297.484,95.948 296.770,96.138 296.652 C 96.329 296.535,96.484 296.097,96.484 295.680 C 96.484 295.263,96.660 294.922,96.875 294.922 C 97.090 294.922,97.266 294.570,97.266 294.141 C 97.266 293.711,97.433 293.359,97.639 293.359 C 97.844 293.359,98.127 292.744,98.268 291.992 C 98.409 291.240,98.681 290.625,98.872 290.625 C 99.063 290.625,99.219 290.361,99.219 290.039 C 99.219 289.717,99.395 289.453,99.609 289.453 C 99.824 289.453,100.000 289.222,100.000 288.941 C 100.000 288.659,100.340 287.724,100.756 286.863 C 101.172 286.003,101.630 284.827,101.775 284.251 C 101.919 283.675,102.195 283.203,102.386 283.203 C 102.578 283.203,102.734 282.852,102.734 282.422 C 102.734 281.992,102.869 281.641,103.033 281.641 C 103.347 281.641,104.688 278.789,104.688 278.122 C 104.688 277.909,104.863 277.734,105.078 277.734 C 105.293 277.734,105.469 277.383,105.469 276.953 C 105.469 276.523,105.601 276.171,105.762 276.170 C 105.923 276.170,106.375 275.335,106.766 274.315 C 107.157 273.295,107.641 272.156,107.840 271.783 C 108.040 271.410,108.203 270.838,108.203 270.513 C 108.203 270.188,108.379 269.922,108.594 269.922 C 108.809 269.922,108.984 269.658,108.984 269.336 C 108.984 269.014,109.141 268.750,109.332 268.750 C 109.522 268.750,109.794 268.135,109.935 267.383 C 110.076 266.631,110.359 266.016,110.565 266.016 C 110.770 266.016,110.938 265.664,110.938 265.234 C 110.938 264.805,111.072 264.453,111.236 264.453 C 111.550 264.453,112.891 261.602,112.891 260.935 C 112.891 260.721,113.066 260.547,113.281 260.547 C 113.496 260.547,113.672 260.195,113.672 259.766 C 113.672 259.336,113.805 258.984,113.967 258.984 C 114.130 258.984,114.508 258.413,114.807 257.715 C 115.107 257.017,115.941 255.215,116.661 253.712 C 117.380 252.209,117.969 250.759,117.969 250.490 C 117.969 250.220,118.137 250.000,118.342 250.000 C 118.547 250.000,118.830 249.385,118.971 248.633 C 119.112 247.881,119.384 247.266,119.575 247.266 C 119.766 247.266,119.922 247.002,119.922 246.680 C 119.922 246.357,120.098 246.094,120.313 246.094 C 120.527 246.094,120.703 245.742,120.703 245.313 C 120.703 244.883,120.879 244.531,121.094 244.531 C 121.309 244.531,121.484 244.268,121.484 243.945 C 121.484 243.429,125.339 243.359,153.832 243.359 C 179.304 243.359,186.322 243.254,186.855 242.865 C 187.576 242.338,187.608 240.914,187.527 213.184 L 187.500 203.906 163.109 203.906 C 147.270 203.906,138.633 203.769,138.477 203.516 C 138.319 203.261,128.965 203.125,111.690 203.125 L 85.145 203.125 84.371 204.395 " stroke="none" fill="#000000" fill-rule="evenodd"></path></g></svg>