<svg id="svg" version="1.1" xmlns="http://www.w3.org/2000/svg" xmlns:xlink="http://www.w3.org/1999/xlink" width="400" height="400" viewBox="0, 0, 400,400"><g id="svgg"><path id="path0" d="M198.272 103.604 C 198.032 133.354,197.236 169.531,196.822 169.531 C 196.636 169.531,196.484 174.365,196.484 180.273 C 196.484 187.174,196.345 191.016,196.094 191.016 C 195.847 191.016,195.703 193.685,195.703 198.242 C 195.703 202.217,195.548 205.469,195.359 205.469 C 195.170 205.469,194.886 211.973,194.727 219.922 C 194.568 227.871,194.283 234.375,194.094 234.375 C 193.905 234.375,193.750 237.627,193.750 241.602 C 193.750 246.159,193.606 248.828,193.359 248.828 C 193.113 248.828,192.969 251.471,192.969 255.977 C 192.969 259.994,192.805 263.288,192.596 263.498 C 192.391 263.703,192.147 267.034,192.054 270.900 C 191.759 283.097,190.925 299.018,190.573 299.154 C 190.387 299.225,190.234 301.291,190.234 303.743 C 190.234 306.270,190.075 308.203,189.867 308.203 C 189.504 308.203,189.251 312.035,188.842 323.730 L 188.634 329.688 215.932 329.688 L 243.231 329.687 243.494 292.676 C 243.664 268.836,243.895 255.618,244.145 255.534 C 244.387 255.452,244.531 251.348,244.531 244.499 C 244.531 237.489,244.671 233.594,244.922 233.594 C 245.173 233.594,245.313 229.695,245.313 222.679 C 245.313 216.676,245.464 211.672,245.648 211.557 C 245.833 211.443,246.112 202.248,246.270 191.124 C 246.432 179.642,246.709 170.842,246.911 170.768 C 247.107 170.696,247.266 167.167,247.266 162.858 C 247.266 157.932,247.409 155.078,247.656 155.078 C 247.902 155.078,248.047 152.565,248.047 148.320 C 248.047 144.578,248.212 141.397,248.418 141.191 C 248.622 140.987,248.883 138.096,248.998 134.766 C 249.114 131.436,249.309 126.475,249.431 123.742 L 249.654 118.774 266.721 118.573 C 276.109 118.462,285.283 118.356,287.109 118.338 C 292.926 118.279,305.249 119.068,305.396 119.509 C 305.472 119.736,306.036 119.922,306.650 119.922 C 307.264 119.922,307.875 120.098,308.008 120.313 C 308.141 120.527,308.678 120.703,309.203 120.703 C 309.727 120.703,310.156 120.871,310.156 121.076 C 310.156 121.281,310.771 121.564,311.523 121.705 C 312.275 121.847,312.891 122.118,312.891 122.309 C 312.891 122.500,313.154 122.656,313.477 122.656 C 313.799 122.656,314.063 122.832,314.063 123.047 C 314.063 123.262,314.301 123.438,314.591 123.438 C 314.882 123.438,315.594 123.877,316.174 124.414 C 316.754 124.951,317.355 125.391,317.511 125.391 C 317.930 125.391,320.313 127.635,320.313 128.029 C 320.313 128.216,320.629 128.709,321.016 129.126 C 321.402 129.542,322.062 130.498,322.481 131.250 C 322.899 132.002,323.330 132.705,323.438 132.813 C 324.051 133.423,325.781 138.045,325.781 139.070 C 325.781 139.496,325.957 139.844,326.172 139.844 C 326.387 139.844,326.563 140.624,326.563 141.579 C 326.563 142.533,326.738 143.422,326.953 143.555 C 327.181 143.696,327.344 145.902,327.344 148.851 C 327.344 151.961,327.193 153.906,326.953 153.906 C 326.738 153.906,326.563 154.785,326.563 155.859 C 326.563 156.934,326.387 157.813,326.172 157.813 C 325.957 157.813,325.776 158.296,325.768 158.887 C 325.756 159.970,324.549 163.862,324.081 164.331 C 323.942 164.470,323.828 164.906,323.828 165.299 C 323.828 165.693,323.652 166.016,323.438 166.016 C 323.223 166.016,323.047 166.367,323.047 166.797 C 323.047 167.227,322.885 167.578,322.687 167.578 C 322.490 167.578,322.202 168.149,322.049 168.847 C 321.896 169.545,321.442 170.401,321.041 170.749 C 320.640 171.096,320.313 171.580,320.313 171.823 C 320.313 172.067,320.149 172.266,319.948 172.266 C 319.748 172.266,319.463 172.647,319.315 173.113 C 319.167 173.580,317.881 175.157,316.456 176.619 C 315.032 178.081,313.656 179.501,313.398 179.775 C 312.639 180.580,311.772 181.250,311.488 181.250 C 311.343 181.250,310.940 181.561,310.593 181.941 C 310.245 182.321,309.216 182.980,308.305 183.406 C 307.395 183.831,306.648 184.312,306.645 184.473 C 306.643 184.634,306.289 184.766,305.859 184.766 C 305.430 184.766,305.078 184.939,305.078 185.152 C 305.078 185.364,304.375 185.650,303.516 185.787 C 302.656 185.925,301.953 186.191,301.953 186.378 C 301.953 186.565,301.612 186.719,301.195 186.719 C 300.778 186.719,300.328 186.895,300.195 187.109 C 300.063 187.324,299.535 187.500,299.023 187.500 C 298.512 187.500,297.992 187.663,297.868 187.863 C 297.745 188.063,296.636 188.335,295.404 188.468 C 294.172 188.601,292.859 188.877,292.486 189.082 C 292.113 189.286,291.024 189.453,290.067 189.453 C 289.110 189.453,288.219 189.629,288.086 189.844 C 287.757 190.376,265.758 190.376,265.430 189.844 C 265.297 189.629,264.066 189.453,262.695 189.453 C 261.324 189.453,260.094 189.277,259.961 189.063 C 259.534 188.372,254.699 188.577,254.423 189.297 C 254.291 189.641,254.359 190.037,254.574 190.176 C 254.789 190.316,255.089 191.133,255.241 191.992 C 255.560 193.805,256.197 195.995,256.689 196.967 C 256.877 197.340,257.031 198.087,257.031 198.628 C 257.031 199.168,257.174 199.609,257.348 199.609 C 257.626 199.609,258.126 201.661,258.847 205.765 C 258.970 206.466,259.227 207.135,259.418 207.253 C 259.609 207.371,259.766 208.073,259.766 208.812 C 259.766 209.551,259.941 210.156,260.156 210.156 C 260.371 210.156,260.547 210.771,260.547 211.523 C 260.547 212.275,260.705 212.891,260.898 212.891 C 261.091 212.891,261.372 214.121,261.523 215.625 C 261.674 217.129,261.956 218.359,262.149 218.359 C 262.342 218.359,262.500 219.150,262.500 220.117 C 262.500 221.084,262.676 221.875,262.891 221.875 C 263.105 221.875,263.281 222.415,263.281 223.075 C 263.281 224.647,264.080 225.391,265.769 225.391 C 266.524 225.391,267.239 225.549,267.359 225.743 C 267.479 225.936,269.642 226.220,272.167 226.374 C 274.692 226.528,276.956 226.813,277.199 227.007 C 277.765 227.462,303.971 227.473,304.269 227.019 C 304.392 226.832,306.407 226.557,308.747 226.409 C 311.087 226.261,313.317 225.971,313.702 225.765 C 314.087 225.559,314.941 225.391,315.599 225.391 C 316.258 225.391,316.797 225.215,316.797 225.000 C 316.797 224.785,317.490 224.609,318.336 224.609 C 319.183 224.609,319.970 224.457,320.085 224.270 C 320.201 224.083,321.046 223.813,321.964 223.669 C 323.785 223.383,325.979 222.756,327.045 222.218 C 327.419 222.029,328.078 221.875,328.510 221.875 C 328.943 221.875,329.297 221.699,329.297 221.484 C 329.297 221.270,329.638 221.094,330.055 221.094 C 330.472 221.094,330.912 220.933,331.034 220.737 C 331.155 220.541,331.955 220.262,332.812 220.117 C 333.670 219.972,334.470 219.693,334.591 219.497 C 334.713 219.301,335.153 219.141,335.570 219.141 C 335.987 219.141,336.328 218.965,336.328 218.750 C 336.328 218.535,336.592 218.359,336.914 218.359 C 337.236 218.359,337.500 218.203,337.500 218.012 C 337.500 217.821,338.115 217.550,338.867 217.409 C 339.619 217.268,340.234 216.984,340.234 216.779 C 340.234 216.574,340.586 216.406,341.016 216.406 C 341.445 216.406,341.797 216.230,341.797 216.016 C 341.797 215.801,342.061 215.625,342.383 215.625 C 342.705 215.625,342.969 215.449,342.969 215.234 C 342.969 215.020,343.299 214.844,343.702 214.844 C 344.106 214.844,344.654 214.580,344.922 214.258 C 345.189 213.936,345.650 213.672,345.946 213.672 C 346.242 213.672,346.484 213.496,346.484 213.281 C 346.484 213.066,346.748 212.891,347.070 212.891 C 347.393 212.891,347.656 212.743,347.656 212.563 C 347.656 212.383,348.359 211.899,349.218 211.489 C 350.077 211.078,350.879 210.435,351.002 210.059 C 351.124 209.683,351.475 209.375,351.782 209.375 C 352.088 209.375,353.142 208.584,354.122 207.617 C 355.103 206.650,356.042 205.859,356.209 205.859 C 356.581 205.859,359.918 202.549,361.523 200.587 C 362.168 199.800,363.267 198.520,363.965 197.744 C 364.663 196.967,365.234 196.198,365.234 196.035 C 365.234 195.872,365.674 195.299,366.211 194.762 C 366.748 194.225,367.188 193.602,367.188 193.377 C 367.188 193.153,367.335 192.969,367.515 192.969 C 367.696 192.969,368.179 192.268,368.589 191.411 C 369.000 190.554,369.468 189.851,369.629 189.848 C 369.790 189.846,369.922 189.580,369.922 189.258 C 369.922 188.936,370.098 188.672,370.313 188.672 C 370.527 188.672,370.703 188.408,370.703 188.086 C 370.703 187.764,370.879 187.500,371.094 187.500 C 371.309 187.500,371.484 187.222,371.484 186.882 C 371.484 186.542,372.081 185.247,372.809 184.004 C 373.538 182.760,374.255 181.193,374.403 180.520 C 374.551 179.847,374.833 179.297,375.031 179.297 C 375.229 179.297,375.391 178.945,375.391 178.516 C 375.391 178.086,375.566 177.734,375.781 177.734 C 375.996 177.734,376.172 177.295,376.172 176.758 C 376.172 176.221,376.335 175.781,376.534 175.781 C 376.734 175.781,377.018 174.814,377.165 173.633 C 377.313 172.451,377.589 171.484,377.779 171.484 C 377.969 171.484,378.125 171.045,378.125 170.508 C 378.125 169.971,378.301 169.531,378.516 169.531 C 378.730 169.531,378.906 168.931,378.906 168.197 C 378.906 167.463,379.043 166.803,379.210 166.732 C 379.674 166.533,380.877 158.715,380.868 155.957 C 380.863 154.584,381.030 153.516,381.250 153.516 C 381.496 153.516,381.641 150.911,381.641 146.484 C 381.641 142.057,381.496 139.453,381.250 139.453 C 381.028 139.453,380.849 138.233,380.836 136.621 C 380.823 135.063,380.651 132.910,380.454 131.836 C 380.256 130.762,379.979 129.048,379.837 128.027 C 379.695 127.007,379.427 126.172,379.242 126.172 C 379.058 126.172,378.906 125.557,378.906 124.805 C 378.906 124.053,378.730 123.438,378.516 123.438 C 378.301 123.438,378.125 122.998,378.125 122.461 C 378.125 121.924,377.949 121.484,377.734 121.484 C 377.520 121.484,377.345 121.089,377.346 120.605 C 377.348 119.470,376.113 116.016,375.704 116.016 C 375.532 116.016,375.391 115.664,375.391 115.234 C 375.391 114.805,375.234 114.453,375.043 114.453 C 374.853 114.453,374.581 113.838,374.440 113.086 C 374.299 112.334,374.016 111.719,373.810 111.719 C 373.605 111.719,373.438 111.367,373.438 110.938 C 373.438 110.508,373.262 110.156,373.047 110.156 C 372.832 110.156,372.656 109.893,372.656 109.570 C 372.656 109.248,372.500 108.984,372.308 108.984 C 372.116 108.984,371.849 108.545,371.715 108.008 C 371.580 107.471,371.297 107.031,371.086 107.031 C 370.876 107.031,370.703 106.721,370.703 106.343 C 370.703 105.964,370.264 105.324,369.727 104.921 C 369.189 104.517,368.750 103.982,368.750 103.730 C 368.750 103.210,367.691 102.033,366.459 101.183 C 366.000 100.867,365.625 100.383,365.625 100.107 C 365.625 99.454,361.907 95.815,360.919 95.502 C 360.499 95.369,360.156 95.103,360.156 94.911 C 360.156 94.443,358.121 92.578,357.610 92.578 C 357.386 92.578,356.950 92.227,356.641 91.797 C 356.331 91.367,355.765 91.016,355.383 91.016 C 355.000 91.016,354.688 90.852,354.688 90.651 C 354.688 90.451,354.306 90.166,353.839 90.018 C 353.372 89.869,352.664 89.444,352.265 89.073 C 351.403 88.270,347.655 86.328,346.967 86.328 C 346.702 86.328,346.484 86.152,346.484 85.938 C 346.484 85.723,346.218 85.547,345.893 85.547 C 345.568 85.547,344.953 85.371,344.526 85.156 C 344.099 84.941,343.406 84.593,342.986 84.382 C 342.566 84.172,341.511 83.885,340.642 83.746 C 339.773 83.608,339.063 83.341,339.063 83.153 C 339.063 82.966,338.570 82.813,337.969 82.813 C 337.367 82.813,336.655 82.593,336.387 82.324 C 336.001 81.938,321.518 81.814,267.174 81.729 L 198.450 81.622 198.272 103.604 " stroke="none" fill="#000000" fill-rule="evenodd"></path></g></svg>